PathFileType	4	(X/Y/Z)	C:\Users\WrightLab\Desktop\Jo\P1.2Trial33.trc
DataRate	CameraRate	NumFrames	NumMarkers	Units	OrigDataRate	OrigDataStartFrame	OrigNumFrames
100.00	100.00	       6	19	mm	100.00	288	       766
Frame#	Time	Headset_Front			Headset_Back			Headset_Left			Headset_Right			Left_Shoulder			Right_Shoulder			Sternum			C7			Left Elbow			Right Elbow			Left Wrist			Right Wrist			Left ASIS			Right ASIS			S2			Left Knee			Right Knee			Left Ankle			Right Ankle			
		X1	Y1	Z1	X2	Y2	Z2	X3	Y3	Z3	X4	Y4	Z4	X5	Y5	Z5	X6	Y6	Z6	X7	Y7	Z7	X8	Y8	Z8	X9	Y9	Z9	X10	Y10	Z10	X11	Y11	Z11	X12	Y12	Z12	X13	Y13	Z13	X14	Y14	Z14	X15	Y15	Z15	X16	Y16	Z16	X17	Y17	Z17	X18	Y18	Z18	X19	Y19	Z19	

288	2.870	-808.57172	1333.36890	530.93390	-887.58893	1515.50977	767.89374	-961.56158	1425.89026	641.84772	-734.65704	1395.19287	645.18262	-1083.40869	1219.57910	722.76642	-665.89319	1248.97461	796.91925	-845.22540	1160.18384	652.45618	-900.24756	1308.49426	867.26764	-1142.77673	933.39471	758.56763	-582.62567	1006.34326	860.59485	-1057.39966	858.52722	547.76666	-551.71539	770.78241	709.70789	-1000.30383	835.18976	660.60858	-702.63574	843.15894	727.34857	-919.18585	908.96924	946.81396	-923.87372	479.07034	574.05029	-732.32361	412.58823	855.47516	-975.22223	180.44022	472.60626	-832.87000	86.95711	952.61560	
289	2.880	-806.45184	1331.84082	521.68011	-885.76947	1513.41187	758.74774	-959.77661	1424.33533	632.36322	-734.31238	1393.23950	634.99414	-1081.90723	1217.45129	711.49158	-664.65253	1246.61426	790.78113	-842.36847	1159.23608	642.33948	-899.41998	1305.91602	857.47125	-1141.19775	931.09680	745.72437	-582.33234	1004.69000	854.15326	-1053.79321	856.55591	536.17255	-549.09064	769.49219	703.33759	-994.92010	833.69263	649.02802	-700.41833	841.10303	719.07520	-921.77155	908.57220	936.69708	-918.78693	477.86679	562.60272	-730.46820	411.06873	847.07697	-966.27844	182.43600	459.56781				
290	2.890	-804.39764	1329.92346	513.14954	-883.89154	1511.26721	749.42218	-958.24731	1423.01831	622.97687	-730.96582	1391.41858	627.64862	-1080.46301	1215.48145	699.86896	-663.88715	1245.01929	783.72461	-840.92859	1157.70605	631.80115	-899.55774	1303.77026	847.86041	-1139.60669	928.90161	733.23468	-581.85016	1002.94226	847.70050	-1050.09265	854.67670	524.45905	-547.36017	767.80377	696.85419	-991.68646	830.59076	638.93176	-698.05078	840.34058	709.40759	-920.86176	904.72290	925.25903	-913.47217	476.07733	551.18372	-728.61023	410.09103	840.47711	-957.39490	184.10828	446.87457				
291	2.900	-802.02026	1328.54761	503.62396	-882.66492	1509.60547	740.13092	-956.30304	1421.40454	612.93994	-729.16656	1389.52942	619.03748	-1079.38806	1212.54626	687.57599	-663.89050	1243.44324	774.05206	-838.62939	1156.31042	622.39032	-900.18787	1302.04297	838.25244	-1138.16394	926.00409	720.32361	-581.68610	1000.87286	841.26263	-1046.02979	852.25378	512.29871	-545.42096	765.24915	691.59711	-985.91376	829.76923	623.45276	-695.61169	837.81787	701.87579	-920.73456	902.06799	913.42456	-907.88525	474.12241	539.74683	-726.10736	408.99390	831.99194	-948.34937	184.89026	434.04050				
292	2.910	-799.66632	1326.44214	494.23648	-881.78540	1507.97852	730.69800	-954.34265	1420.03809	602.68201	-727.62323	1387.44666	610.94519	-1077.72571	1210.34656	676.95880	-663.32306	1241.40051	765.77679	-836.68207	1155.00452	612.75238	-899.33228	1299.43469	828.05615	-1136.76709	923.94440	707.47620	-581.83600	999.60510	835.14166	-1042.49182	850.25348	500.66095	-543.66083	763.39301	686.18933	-981.13672	828.53845	613.21436	-693.15680	837.12427	691.93616	-920.97424	899.82605	901.76288	-902.89032	472.08139	528.51080	-723.68237	407.66867	824.65887	-939.81665	182.70279	424.52890				
293	2.920	-797.41217	1324.54236	485.14679	-881.04059	1506.49280	721.22693	-952.46063	1418.81592	592.59448	-725.83325	1385.99829	600.94385	-1076.81494	1208.82788	664.92285	-662.71008	1240.31702	760.41498	-834.82770	1153.91675	603.12091	-900.88831	1298.24622	818.37836	-1134.73987	921.26801	693.98529	-581.39246	998.41992	828.47076	-1038.40137	848.22137	488.49048	-541.60919	761.29535	680.55322	-978.46002	825.67535	601.65918	-690.61273	836.47882	680.26239	-921.28986	897.59735	890.32678	-897.56519	469.67819	515.07446	-721.25568	407.26401	814.55920	-933.31903	178.01329	419.14505	-830.42523	86.37659	951.37494	
